<?xml version='1.0' encoding='iso-8859-1'?>
<!-- Uploaded to: SVG Repo, www.svgrepo.com, Generator: SVG Repo Mixer Tools -->
<svg fill="#000000" height="800px" width="800px" version="1.1" xmlns="http://www.w3.org/2000/svg" viewBox="0 0 420.425 420.425" xmlns:xlink="http://www.w3.org/1999/xlink" enable-background="new 0 0 420.425 420.425">
  <path d="m281.876,203.755c4.418,0 8,3.582 8,8v5.046c0,4.418-3.582,8-8,8s-8-3.582-8-8v-5.046c0-4.418 3.582-8 8-8zm-143.325,48.328c-19.43,0-37.2-13.723-45.273-34.961-0.696-1.831-0.696-3.854 0-5.686 8.073-21.239 25.844-34.964 45.273-34.964 19.431,0 37.202,13.725 45.275,34.965 0.695,1.831 0.695,3.854 0,5.685-8.072,21.237-25.843,34.961-45.275,34.961zm29.136-37.804c-6.053-13.345-17.232-21.807-29.136-21.807-11.9,0-23.08,8.463-29.135,21.807 6.054,13.342 17.233,21.804 29.135,21.804 11.903,0 23.083-8.462 29.136-21.804zm-29.136-10.524c-4.418,0-8,3.582-8,8v5.046c0,4.418 3.582,8 8,8s8-3.582 8-8v-5.046c0-4.418-3.582-8-8-8zm281.765,101.428c-0.723,4.359-4.839,7.301-9.201,6.584l-25.649-4.254c-9.231,11.991-21.31,22.634-35.167,31.211l51.087,30.977c3.778,2.291 4.984,7.211 2.693,10.988s-7.21,4.985-10.988,2.693l-59.167-35.875c-8.939,4.109-18.369,7.396-28.055,9.706-14.864,30.592-52.652,50.867-95.655,50.867-43.004,0-80.793-20.275-95.657-50.867-9.686-2.31-19.114-5.596-28.054-9.706l-59.166,35.875c-3.776,2.291-8.697,1.086-10.988-2.693-2.291-3.777-1.085-8.697 2.693-10.988l51.086-30.976c-13.856-8.577-25.936-19.222-35.167-31.212l-25.65,4.254c-4.363,0.726-8.478-2.226-9.201-6.584-0.723-4.358 2.226-8.479 6.584-9.201l18.802-3.117c-10.467-19.772-12.784-40.902-6.677-61.405l15.579-52.299-17.312-116.088c-4.664-31.27 4.943-43.355 13.824-47.988 14.047-7.328 33.987,0.167 56.146,21.107l27.846,26.318h190.621l27.846-26.318c22.159-20.941 42.099-28.439 56.146-21.107 8.881,4.633 18.488,16.719 13.824,47.988l-17.309,116.088 15.579,52.299c6.107,20.503 3.789,41.634-6.678,61.405l18.801,3.117c4.358,0.723 7.307,4.843 6.584,9.201zm-211.94-226.673c3.44,6.096 7.146,13.573 11.364,22.091 11.904,24.028 27.981,56.48 49.323,77.898 4.125-1.328 8.426-2.027 12.813-2.027 13.552,0 26.295,6.675 35.505,17.919 12.651-2.956 48.599-14.315 51.939-15.279l-10.633-35.694c-4.667-15.663-10.548-28.725-17.481-38.822-2.501-3.642-1.576-8.622 2.066-11.123 3.642-2.501 8.622-1.576 11.123,2.066 7.879,11.475 14.482,26.046 19.626,43.311l1.229,4.123 12.267-82.259c2.92-19.583-0.875-29.083-5.4-31.443-5.388-2.811-18.51,0.361-37.756,18.551l-30.099,28.446c-0.04,0.039-0.081,0.078-0.122,0.116l-49.754,47.023c-3.209,3.033-8.272,2.894-11.31-0.319-3.034-3.211-2.892-8.274 0.319-11.31l35.199-33.268h-80.218zm73.5,113.962c-11.9,0-23.08,8.463-29.136,21.807 6.055,13.342 17.234,21.804 29.136,21.804 11.903,0 23.083-8.461 29.135-21.804-6.052-13.345-17.232-21.807-29.135-21.807zm104.399,43.556l-12.388-41.584c-3.57,1.033-35.898,11.256-47.832,14.295 0.383,0.886 0.747,1.784 1.095,2.698 0.695,1.831 0.695,3.853 0,5.684-8.071,21.238-25.843,34.962-45.274,34.962-19.429,0-37.2-13.723-45.274-34.961-0.696-1.831-0.696-3.854 0-5.686 3.948-10.385 10.213-18.973 17.858-25.039-21.504-23.077-37.246-54.854-49.057-78.693-6.236-12.59-11.664-23.546-15.934-29.193h-57.637l35.199,33.268c3.211,3.035 3.354,8.099 0.319,11.31-3.034,3.213-8.099,3.353-11.31,0.319l-49.753-47.023c-0.042-0.038-0.083-0.077-0.124-0.116l-30.096-28.448c-19.246-18.19-32.369-21.361-37.756-18.551-4.525,2.36-8.32,11.86-5.4,31.443l12.267,82.259 1.229-4.123c5.144-17.265 11.747-31.836 19.626-43.311 2.502-3.643 7.482-4.566 11.123-2.066 3.643,2.501 4.567,7.481 2.066,11.123-6.934,10.098-12.814,23.159-17.481,38.822l-27.588,92.61c-5.245,17.606-2.642,35.928 7.526,52.981 0.213,0.355 0.428,0.711 0.646,1.064l76.351-12.66c4.355-0.717 8.479,2.225 9.201,6.584 0.723,4.358-2.226,8.479-6.584,9.201l-67.938,11.265c8.879,9.588 20.039,18.063 32.464,24.748l36.907-22.378c3.776-2.291 8.697-1.086 10.988,2.693 2.291,3.777 1.085,8.697-2.693,10.988l-27.49,16.669c5.976,2.194 12.111,3.97 18.318,5.267 2.597,0.543 4.756,2.337 5.764,4.791 10.846,26.4 44.813,44.839 82.602,44.839 37.788,0 71.754-18.438 82.6-44.839 1.008-2.454 3.167-4.248 5.764-4.791 6.207-1.297 12.344-3.072 18.32-5.268l-27.489-16.668c-3.778-2.291-4.984-7.211-2.693-10.988 2.292-3.777 7.213-4.983 10.988-2.693l36.906,22.378c12.425-6.686 23.584-15.159 32.463-24.748l-67.938-11.265c-4.358-0.723-7.307-4.843-6.584-9.201s4.834-7.309 9.201-6.584l76.35,12.66c0.219-0.354 0.435-0.71 0.647-1.066 10.167-17.051 12.769-35.372 7.525-52.978zm-125.535,117.262c1.203,4.251-1.268,8.673-5.519,9.876-5.825,1.649-11.973,2.452-18.065,2.452-9.593,0-19.055-1.988-26.942-5.802-12.897,6.234-30.009,7.595-45.006,3.35-4.251-1.203-6.722-5.624-5.519-9.876 1.202-4.25 5.621-6.728 9.876-5.519 10.821,3.063 23.37,2.261 32.648-1.873v-24.284l-24.097-23.405c-1.551-1.506-2.426-3.576-2.426-5.738v-10.374c0-4.418 3.582-8 8-8h53.045c4.418,0 8,3.582 8,8v10.375c0,2.162-0.875,4.232-2.426,5.738l-24.097,23.404v24.284c9.278,4.134 21.829,4.935 32.65,1.873 4.257-1.203 8.675,1.269 9.878,5.519zm-50.527-46.209l17.485-16.983h-34.97l17.485,16.983z"/>
</svg>